<?xml version="1.0" encoding="utf-8"?>
<svg xmlns="http://www.w3.org/2000/svg" xmlns:svg="http://www.w3.org/2000/svg" version="1.1" viewBox="0 0 1400 690">
	<title>The titlepage for the Standard Ebooks edition of The Works of Max Beerbohm, by Max Beerbohm</title>
	<g aria-label="THE WORKS OF">
		<path d="m 300.62426,68.245613 h 18.33918 V 130 h 17.59065 V 68.245613 h 18.33918 V 52.807016 h -54.26901 z"/>
		<path d="M 383.81871,99.029239 H 408.7076 V 130 h 17.59064 V 52.807016 H 408.7076 V 83.590642 H 383.81871 V 52.807016 H 366.22806 V 130 h 17.59065 z"/>
		<path d="M 486.66374,52.807016 H 442.5 V 130 h 44.16374 v -15.4386 h -26.5731 V 99.029239 h 25.45029 V 83.590642 H 460.09064 V 68.245613 h 26.5731 z"/>
		<path d="m 583.54824,130 h 19.46199 l 21.98831,-77.192984 h -19.46199 l -13.19298,52.959064 h -0.46784 L 577.84064,52.807016 H 564.55409 L 550.519,105.76608 h -0.46783 L 536.85819,52.807016 H 517.30263 L 539.29093,130 h 19.55556 l 12.35088,-43.321638 z"/>
		<path d="m 627.83188,91.356724 c 0,22.549706 16.09357,40.046786 38.92398,40.046786 22.17544,0 38.83041,-17.49708 38.83041,-40.046786 0,-22.549708 -17.40351,-39.953217 -38.83041,-39.953217 -21.23977,0 -38.92398,17.403509 -38.92398,39.953217 z m 18.99415,0 c 0,-11.508772 6.36257,-23.017544 19.92983,-23.017544 13.66082,0 19.83625,11.508772 19.83625,23.017544 0,11.508776 -5.80117,23.017546 -19.83625,23.017546 -14.40936,0 -19.92983,-11.50877 -19.92983,-23.017546 z"/>
		<path d="M 718.34794,52.807016 V 130 h 17.59065 V 99.497075 L 759.51754,130 h 22.36257 l -26.5731,-31.906433 c 9.45029,-2.994152 15.81287,-10.760234 15.81287,-22.362574 0,-15.157895 -10.85381,-22.923977 -25.1696,-22.923977 z m 17.59065,34.245615 V 66.842104 h 2.05848 c 6.64327,0 14.59649,0.467836 14.59649,10.105263 0,9.637428 -7.95322,10.105264 -14.59649,10.105264 z"/>
		<path d="M 860.68568,130 824.75585,89.391812 855.82018,52.807016 H 834.48685 L 808.00731,84.33918 V 52.807016 H 790.41667 V 130 h 17.59064 V 97.251461 L 836.45176,130 Z"/>
		<path d="m 895.68127,51.403507 c -12.44444,0 -25.16959,9.169591 -25.16959,23.578948 0,8.046784 5.4269,15.251462 14.69006,19.836258 9.16959,4.584795 17.40351,7.111107 17.40351,12.725147 0,7.20468 -7.29824,7.57895 -11.1345,7.57895 -8.60819,0 -18.90059,-8.70176 -18.90059,-8.70176 l -8.79532,14.78363 c 0,0 10.94737,10.19883 29.00585,10.19883 15.06433,0 29.09942,-6.45614 29.09942,-24.88889 0,-10.105264 -9.4503,-17.40351 -18.05848,-21.052632 -8.79533,-3.742691 -16.09357,-6.83041 -16.09357,-11.134504 0,-4.210526 3.18128,-6.923976 9.16959,-6.923976 7.95322,0 15.62573,5.333333 15.62573,5.333333 l 7.11111,-14.035088 c 0,0 -9.91813,-7.298246 -23.95322,-7.298246 z"/>
		<path d="m 962.22516,91.356724 c 0,22.549706 16.09357,40.046786 38.92394,40.046786 22.1755,0 38.8304,-17.49708 38.8304,-40.046786 0,-22.549708 -17.4035,-39.953217 -38.8304,-39.953217 -21.23973,0 -38.92394,17.403509 -38.92394,39.953217 z m 18.99415,0 c 0,-11.508772 6.36257,-23.017544 19.92979,-23.017544 13.6609,0 19.8363,11.508772 19.8363,23.017544 0,11.508776 -5.8012,23.017546 -19.8363,23.017546 -14.40932,0 -19.92979,-11.50877 -19.92979,-23.017546 z"/>
		<path d="m 1097.3728,52.807016 h -44.6316 V 130 h 17.5907 V 99.029239 h 24.9824 V 83.590642 h -24.9824 V 68.245613 h 27.0409 z"/>
	</g>
	<g aria-label="MAX BEERBOHM">
		<path d="m 339.88011,230 h 17.59064 l -6.92397,-77.19298 h -18.71345 l -17.12281,44.53801 -17.12281,-44.53801 H 278.87426 L 271.95029,230 h 17.59064 l 3.64912,-45.75439 h 0.46784 l 15.81286,45.28655 h 10.47954 l 15.81286,-45.28655 h 0.46784 z"/>
		<path d="m 408.72222,152.80702 h -16.2807 L 361.28362,230 h 18.90059 l 5.7076,-15.4386 h 29.38012 L 420.97953,230 h 18.90058 z m 0.5614,46.31579 h -17.40351 l 8.60819,-22.45614 h 0.18713 z"/>
		<path d="m 520.03362,230 -30.12866,-41.54386 25.26316,-35.64912 h -21.89474 l -14.22222,21.05263 -14.22222,-21.05263 H 443.86987 L 468.19736,188.45614 439.00438,230 h 21.80117 L 479.05116,203.7076 497.29677,230 Z"/>
		<path d="M 558.12865,152.80702 V 230 h 29.28655 c 16,0 25.26315,-8.79532 25.26315,-21.52047 0,-12.44444 -6.83041,-17.77778 -16.46783,-19.46199 6.54971,-3.36842 9.63742,-9.45029 9.63742,-16.5614 0,-14.69006 -10.47953,-19.64912 -23.76608,-19.64912 z m 17.59064,30.22222 v -16.65497 h 1.40351 c 7.67251,0 11.6959,2.33918 11.6959,7.85965 0,6.45614 -4.11695,8.79532 -11.6959,8.79532 z m 0,33.40351 v -18.24562 h 5.52047 c 8.32748,0 12.91228,2.52632 12.91228,9.63743 0,6.08187 -4.5848,8.60819 -12.91228,8.60819 z"/>
		<path d="M 669.60965,152.80702 H 625.44591 V 230 h 44.16374 v -15.4386 h -26.5731 v -15.53216 h 25.45029 v -15.4386 h -25.45029 v -15.34503 h 26.5731 z"/>
		<path d="M 728.88596,152.80702 H 684.72221 V 230 h 44.16375 v -15.4386 h -26.5731 v -15.53216 h 25.45029 v -15.4386 h -25.45029 v -15.34503 h 26.5731 z"/>
		<path d="M 743.99855,152.80702 V 230 h 17.59064 V 199.49708 L 785.16814,230 h 22.36257 l -26.5731,-31.90643 c 9.4503,-2.99416 15.81287,-10.76024 15.81287,-22.36258 0,-15.15789 -10.8538,-22.92397 -25.16959,-22.92397 z m 17.59064,34.24561 V 166.8421 h 2.05848 c 6.64328,0 14.59649,0.46784 14.59649,10.10527 0,9.63742 -7.95321,10.10526 -14.59649,10.10526 z"/>
		<path d="M 816.06724,152.80702 V 230 h 29.28655 c 16,0 25.26316,-8.79532 25.26316,-21.52047 0,-12.44444 -6.83041,-17.77778 -16.46783,-19.46199 6.5497,-3.36842 9.63742,-9.45029 9.63742,-16.5614 0,-14.69006 -10.47953,-19.64912 -23.76608,-19.64912 z m 17.59065,30.22222 v -16.65497 h 1.40351 c 7.67251,0 11.6959,2.33918 11.6959,7.85965 0,6.45614 -4.11696,8.79532 -11.6959,8.79532 z m 0,33.40351 v -18.24562 h 5.52047 c 8.32748,0 12.91228,2.52632 12.91228,9.63743 0,6.08187 -4.5848,8.60819 -12.91228,8.60819 z"/>
		<path d="m 879.92252,191.35672 c 0,22.54971 16.09356,40.04679 38.92397,40.04679 22.17544,0 38.83041,-17.49708 38.83041,-40.04679 0,-22.5497 -17.4035,-39.95321 -38.83041,-39.95321 -21.23976,0 -38.92397,17.40351 -38.92397,39.95321 z m 18.99415,0 c 0,-11.50877 6.36257,-23.01754 19.92982,-23.01754 13.66082,0 19.83626,11.50877 19.83626,23.01754 0,11.50878 -5.80117,23.01755 -19.83626,23.01755 -14.40935,0 -19.92982,-11.50877 -19.92982,-23.01755 z"/>
		<path d="m 988.02923,199.02924 h 24.88887 V 230 h 17.5907 v -77.19298 h -17.5907 v 30.78362 H 988.02923 V 152.80702 H 970.43858 V 230 h 17.59065 z"/>
		<path d="m 1110.5234,230 h 17.5907 l -6.924,-77.19298 h -18.7135 l -17.1228,44.53801 -17.1228,-44.53801 h -18.7134 L 1042.5936,230 h 17.5906 l 3.6492,-45.75439 h 0.4678 l 15.8129,45.28655 h 10.4795 l 15.8129,-45.28655 h 0.4678 z"/>
	</g>
	<g aria-label="MAX BEERBOHM">
		<path d="m 423.03509,390 h 13.19298 l -5.19298,-57.89474 H 417 l -12.8421,33.40351 -12.84211,-33.40351 H 377.2807 L 372.08772,390 h 13.19298 l 2.73685,-34.31579 h 0.35087 l 11.85965,33.96491 h 7.85965 l 11.85965,-33.96491 h 0.35088 z"/>
		<path d="M 475.91667,332.10526 H 463.70614 L 440.33772,390 h 14.17544 l 4.2807,-11.57895 h 22.03509 L 485.10965,390 h 14.17544 z m 0.42105,34.73685 H 463.28509 L 469.74123,350 h 0.14035 z"/>
		<path d="m 560.65023,390 -22.59649,-31.15789 18.94736,-26.73685 h -16.42105 l -10.66667,15.78948 -10.66666,-15.78948 h -15.7193 L 521.77303,358.84211 499.8783,390 h 16.35087 L 529.91338,370.2807 543.5976,390 Z"/>
		<path d="M 591.72149,332.10526 V 390 h 21.96491 c 12,0 18.94737,-6.59649 18.94737,-16.14035 0,-9.33333 -5.1228,-13.33333 -12.35087,-14.59649 4.91228,-2.52632 7.22807,-7.08772 7.22807,-12.42105 0,-11.01755 -7.85965,-14.73685 -17.82457,-14.73685 z m 13.19298,22.66667 V 342.2807 h 1.05264 c 5.75438,0 8.77193,1.75439 8.77193,5.89474 0,4.8421 -3.08772,6.59649 -8.77193,6.59649 z m 0,25.05263 v -13.68421 h 4.14036 c 6.24561,0 9.68421,1.89474 9.68421,7.22807 0,4.5614 -3.4386,6.45614 -9.68421,6.45614 z"/>
		<path d="m 676.58224,332.10526 h -33.1228 V 390 h 33.1228 v -11.57895 h -19.92982 v -11.64912 h 19.08772 v -11.57895 h -19.08772 v -11.50877 h 19.92982 z"/>
		<path d="M 722.28946,332.10526 H 689.16665 V 390 h 33.12281 v -11.57895 h -19.92983 v -11.64912 h 19.08772 v -11.57895 h -19.08772 v -11.50877 h 19.92983 z"/>
		<path d="M 734.8739,332.10526 V 390 h 13.19298 V 367.12281 L 765.75109,390 h 16.77193 L 762.5932,366.07018 c 7.08771,-2.24562 11.85964,-8.07018 11.85964,-16.77193 0,-11.36842 -8.14035,-17.19299 -18.87719,-17.19299 z m 13.19298,25.68421 v -15.15789 h 1.54386 c 4.98246,0 10.94737,0.35088 10.94737,7.57895 0,7.22807 -5.96491,7.57894 -10.94737,7.57894 z"/>
		<path d="M 790.17544,332.10526 V 390 h 21.96491 c 12,0 18.94737,-6.59649 18.94737,-16.14035 0,-9.33333 -5.12281,-13.33333 -12.35088,-14.59649 4.91229,-2.52632 7.22807,-7.08772 7.22807,-12.42105 0,-11.01755 -7.85964,-14.73685 -17.82456,-14.73685 z m 13.19298,22.66667 V 342.2807 h 1.05264 c 5.75438,0 8.77193,1.75439 8.77193,5.89474 0,4.8421 -3.08772,6.59649 -8.77193,6.59649 z m 0,25.05263 v -13.68421 h 4.14035 c 6.24562,0 9.68422,1.89474 9.68422,7.22807 0,4.5614 -3.4386,6.45614 -9.68422,6.45614 z"/>
		<path d="m 839.3169,361.01754 c 0,16.91228 12.07017,30.03509 29.19298,30.03509 16.63158,0 29.1228,-13.12281 29.1228,-30.03509 0,-16.91228 -13.05263,-29.96491 -29.1228,-29.96491 -15.92983,0 -29.19298,13.05263 -29.19298,29.96491 z m 14.24561,0 c 0,-8.63157 4.77193,-17.26315 14.94737,-17.26315 10.24561,0 14.87719,8.63158 14.87719,17.26315 0,8.63158 -4.35088,17.26316 -14.87719,17.26316 -10.80702,0 -14.94737,-8.63158 -14.94737,-17.26316 z"/>
		<path d="m 921.64693,366.77193 h 18.66666 V 390 h 13.19299 v -57.89474 h -13.19299 v 23.08772 H 921.64693 V 332.10526 H 908.45394 V 390 h 13.19299 z"/>
		<path d="m 1014.7675,390 h 13.193 l -5.193,-57.89474 h -14.0351 l -12.84208,33.40351 -12.84211,-33.40351 H 969.01313 L 963.82014,390 h 13.19299 l 2.73684,-34.31579 h 0.35088 l 11.85964,33.96491 h 7.85965 l 11.85966,-33.96491 h 0.3509 z"/>
	</g>
	<g aria-label="bibliography by">
		<path d="m 578.04098,576.98193 c 0,2.46547 2.67801,3.57067 5.18598,3.57067 6.58873,0 11.60467,-7.60892 11.60467,-13.39001 0,-2.76301 -1.48778,-5.39851 -4.67587,-5.39851 -4.88842,0 -6.8863,3.95324 -7.48141,3.95324 -0.085,0 -0.21254,-0.34006 -0.21254,-0.63762 0,-3.06057 2.72051,-15.72795 2.72051,-16.49309 0,-0.46759 -0.34006,-0.76514 -0.80765,-0.76514 -0.25505,0 -1.02019,0.25505 -2.678,0.46759 -1.95537,0.25504 -3.14559,0.21254 -3.14559,1.06269 0,0.59512 0.34006,0.59512 0.80765,0.59512 0.63762,0 1.10521,-0.085 1.74283,-0.085 0.85016,0 1.0627,0.29756 1.0627,0.5101 0,1.02019 -0.25505,2.50797 -0.63762,4.33581 -0.63762,3.14559 -1.14772,7.26886 -1.91286,11.68969 -0.59511,3.44315 -1.5728,7.86397 -1.5728,10.58448 z m 2.80553,-0.51009 c 0,-0.42508 0.46759,-4.97343 1.70032,-8.33156 1.36025,-3.6982 4.12327,-4.12328 5.14346,-4.12328 2.33794,0 4.16578,1.95537 4.16578,4.33582 0,4.88841 -3.91073,11.00956 -7.73645,11.00956 -2.63549,0 -3.27311,-1.44527 -3.27311,-2.89054 z"/>
		<path d="m 596.78036,563.16684 c 0,0.42508 0.34006,0.5101 0.59511,0.5101 0.34006,0 1.02019,0.0425 1.91286,0.0425 0.76514,0 1.02019,0.17003 1.02019,0.89267 0,2.42295 -1.91286,9.05419 -1.91286,12.2848 0,1.82784 0.29755,3.52816 1.57279,3.52816 1.5728,0 3.91074,-2.50797 3.91074,-2.50797 0.46758,-0.5101 1.23273,-1.95537 1.23273,-2.46546 0,-0.29756 -0.17003,-0.46759 -0.42508,-0.46759 -0.59511,0 -1.19022,2.21041 -2.6355,2.21041 -0.42508,0 -0.85015,-0.5526 -0.85015,-1.14771 0,-0.5101 0,-0.42508 1.27523,-8.45909 0.34007,-2.1679 1.14772,-3.82571 1.14772,-4.93092 0,-0.29756 -0.29756,-0.46759 -0.59511,-0.46759 -2.42296,0 -3.14559,0.38257 -4.84591,0.38257 h -0.42508 c -0.46759,0 -0.97768,0.0425 -0.97768,0.59511 z m 4.50584,-8.37407 c 0,0.42508 1.14772,2.25293 1.91286,2.25293 0.38257,0 1.87035,-1.40277 1.87035,-2.25293 0,-0.76514 -0.80765,-2.25292 -1.65781,-2.25292 -0.76514,0 -2.1254,1.87035 -2.1254,2.25292 z"/>
		<path d="m 608.42754,576.98193 c 0,2.46547 2.678,3.57067 5.18597,3.57067 6.58874,0 11.60468,-7.60892 11.60468,-13.39001 0,-2.76301 -1.48778,-5.39851 -4.67588,-5.39851 -4.88842,0 -6.88629,3.95324 -7.4814,3.95324 -0.085,0 -0.21254,-0.34006 -0.21254,-0.63762 0,-3.06057 2.72051,-15.72795 2.72051,-16.49309 0,-0.46759 -0.34007,-0.76514 -0.80765,-0.76514 -0.25505,0 -1.02019,0.25505 -2.67801,0.46759 -1.95536,0.25504 -3.14559,0.21254 -3.14559,1.06269 0,0.59512 0.34007,0.59512 0.80766,0.59512 0.63762,0 1.1052,-0.085 1.74282,-0.085 0.85016,0 1.0627,0.29756 1.0627,0.5101 0,1.02019 -0.25505,2.50797 -0.63762,4.33581 -0.63762,3.14559 -1.14771,7.26886 -1.91286,11.68969 -0.59511,3.44315 -1.57279,7.86397 -1.57279,10.58448 z m 2.80552,-0.51009 c 0,-0.42508 0.46759,-4.97343 1.70032,-8.33156 1.36026,-3.6982 4.12328,-4.12328 5.14347,-4.12328 2.33794,0 4.16578,1.95537 4.16578,4.33582 0,4.88841 -3.91073,11.00956 -7.73645,11.00956 -2.6355,0 -3.27312,-1.44527 -3.27312,-2.89054 z"/>
		<path d="m 628.27212,576.34431 c 0,3.99575 1.23273,3.99575 2.08289,3.99575 0.80765,0 2.59298,-0.85016 3.69819,-2.12539 1.02019,-1.19023 2.1254,-2.6355 2.1254,-3.06058 0,-0.42508 -0.21254,-0.68013 -0.5101,-0.68013 -1.1052,0 -1.53028,3.01807 -3.86822,3.01807 -0.5526,0 -0.68013,-0.21254 -0.68013,-1.65781 0,-1.44527 0.5101,-4.12327 1.23273,-9.13921 1.36026,-9.13922 0.63762,-7.56642 2.21042,-15.81297 0.12752,-0.80765 0.42508,-1.36025 0.42508,-1.95537 0,-0.42507 -0.21254,-0.68012 -0.89267,-0.68012 -1.10521,0 -2.04038,0.42508 -5.14346,0.63762 -0.55261,0.0425 -0.63762,0.38257 -0.63762,0.59511 0,0.46759 0.38257,0.59511 1.23273,0.59511 0.51009,0 0.59511,-0.0425 1.23273,-0.0425 0.63762,0 1.0627,0.34007 1.0627,0.85016 0,0.5101 -0.63762,4.33581 -1.36026,8.92667 -0.42508,2.72051 -0.63762,5.73858 -1.02019,8.41658 -0.085,0.68013 -1.19022,5.69607 -1.19022,8.11902 z"/>
		<path d="m 638.29204,563.16684 c 0,0.42508 0.34007,0.5101 0.59512,0.5101 0.34006,0 1.02019,0.0425 1.91285,0.0425 0.76515,0 1.0202,0.17003 1.0202,0.89267 0,2.42295 -1.91286,9.05419 -1.91286,12.2848 0,1.82784 0.29755,3.52816 1.57279,3.52816 1.5728,0 3.91074,-2.50797 3.91074,-2.50797 0.46758,-0.5101 1.23273,-1.95537 1.23273,-2.46546 0,-0.29756 -0.17004,-0.46759 -0.42508,-0.46759 -0.59511,0 -1.19023,2.21041 -2.6355,2.21041 -0.42508,0 -0.85016,-0.5526 -0.85016,-1.14771 0,-0.5101 0,-0.42508 1.27524,-8.45909 0.34007,-2.1679 1.14772,-3.82571 1.14772,-4.93092 0,-0.29756 -0.29756,-0.46759 -0.59511,-0.46759 -2.42296,0 -3.14559,0.38257 -4.84591,0.38257 h -0.42508 c -0.46759,0 -0.97769,0.0425 -0.97769,0.59511 z m 4.50585,-8.37407 c 0,0.42508 1.14771,2.25293 1.91286,2.25293 0.38257,0 1.87035,-1.40277 1.87035,-2.25293 0,-0.76514 -0.80765,-2.25292 -1.65781,-2.25292 -0.76515,0 -2.1254,1.87035 -2.1254,2.25292 z"/>
		<path d="m 649.42914,572.81615 c 0,5.18598 3.01806,7.60893 6.50371,7.60893 6.24868,0 9.73433,-6.07864 9.73433,-11.39214 0,-3.99575 -1.95537,-7.52391 -6.20616,-7.52391 -6.46122,0 -10.03188,6.03614 -10.03188,11.30712 z m 3.27311,0.0425 c 0,-1.74283 0.42508,-3.27311 0.85016,-4.76089 0.97768,-3.44315 3.27311,-5.3135 5.31349,-5.3135 1.95537,0 3.65569,1.74283 3.65569,5.73858 0,3.52816 -1.5728,10.62699 -6.12115,10.62699 -1.99787,0 -3.69819,-1.99787 -3.69819,-6.29118 z"/>
		<path d="m 665.14778,583.10308 c 0,3.6982 4.33581,5.18597 8.71413,5.18597 4.2508,0 7.39639,-0.97768 7.39639,-4.59086 0,-5.14346 -10.83953,-4.12327 -10.83953,-7.69394 0,-1.10521 0.46759,-1.44527 0.51009,-1.44527 0.68013,0 1.31775,0.5526 3.27312,0.5526 3.86822,0 6.07864,-4.63337 6.07864,-7.31137 0,-1.87035 -0.76515,-3.01806 -0.76515,-3.31562 0,-0.17003 0.25505,-0.38257 0.5101,-0.38257 0.34006,0 1.14771,0.34006 2.25292,0.34006 1.0627,0 1.5728,-0.85016 1.5728,-1.31774 0,-0.89267 -0.85016,-1.10521 -1.23274,-1.10521 -0.72263,0 -1.91285,0.93517 -3.06057,0.93517 -1.23273,0 -2.89054,-1.1052 -4.67588,-1.1052 -4.08076,0 -6.33368,4.25079 -6.33368,6.80127 0,4.63337 1.82784,5.01594 1.82784,5.35601 0,0.38257 -1.65781,0.89266 -1.65781,2.93305 0,1.36025 0.51009,1.6153 0.51009,1.87035 0,0.25504 -4.08076,0.46758 -4.08076,4.2933 z m 2.33794,-0.51009 c 0,-1.70032 1.53028,-3.1881 2.1679,-3.1881 0,0 0.34007,0.34006 1.40277,0.76514 6.20616,2.50797 7.4814,3.40064 7.4814,4.29331 0,2.38044 -2.97556,2.76301 -4.76089,2.76301 -2.80553,0 -6.29118,-1.40276 -6.29118,-4.63336 z m 3.61318,-13.21998 c 0,-4.20829 1.91285,-6.41871 3.69819,-6.41871 1.57279,0 3.01806,1.65782 3.01806,5.05845 0,3.91074 -1.99787,6.12115 -3.82571,6.12115 -1.53029,0 -2.89054,-1.44527 -2.89054,-4.76089 z"/>
		<path d="m 685.3198,567.41764 c 0,0.59511 0.34007,0.72264 0.5101,0.72264 0.21254,0 0.34006,-0.12753 0.46759,-0.25505 0.25505,-0.29756 0.59511,-2.84804 2.33794,-2.84804 0.76514,0 1.44527,0.76515 1.44527,2.89055 0,3.18809 -1.82785,9.43677 -1.82785,11.13708 0,1.0202 0.85016,1.10521 1.27524,1.10521 h 0.21254 c 1.53029,0 1.44527,0 2.38045,-7.22635 l 0.21254,-1.40277 c 0.21254,-1.78533 1.27524,-7.35387 3.1881,-7.35387 1.53028,0 1.36025,1.78533 2.29543,1.78533 0.76514,0 0.85016,-1.31775 0.93517,-1.6153 0.12753,-0.46759 0.46759,-1.02019 0.46759,-1.5728 0,-0.59511 -0.46759,-1.31774 -1.5728,-1.31774 -3.14558,0 -5.27098,4.37832 -5.56854,4.37832 -0.085,0 -0.12752,-0.0425 -1.19022,-2.80553 -0.25505,-0.68013 -0.68013,-1.48778 -1.5728,-1.48778 -0.38257,0 -3.99575,1.02019 -3.99575,5.8661 z"/>
		<path d="m 698.91107,575.15409 c 0,2.76302 0.51009,5.48353 4.54835,5.48353 4.03826,0 7.56642,-5.10096 7.77896,-5.10096 0.29756,0 -0.085,4.7609 2.63549,4.7609 1.14772,0 3.06058,-1.95537 4.12328,-3.48566 0.5526,-0.76514 0.76514,-1.40276 0.76514,-1.82784 0,-0.17003 -0.0425,-0.46759 -0.38257,-0.46759 -0.80765,0 -1.70032,2.76302 -3.10308,2.76302 -0.80765,0 -1.44527,-1.40276 -1.44527,-2.50797 0,-1.6153 0.42508,-3.57067 0.76514,-5.44102 0.34006,-1.91286 0.59511,-3.86823 0.97768,-5.44102 0.29756,-1.23273 0.85016,-2.25292 0.85016,-2.93305 0,-0.46759 -0.21254,-0.63762 -0.46759,-0.63762 -0.85015,0 -1.36025,2.08289 -2.21041,2.08289 -1.40276,0 -2.29543,-0.46759 -3.61318,-0.46759 -1.1052,0 -1.95536,0.21254 -3.10308,0.76515 -2.25292,1.0627 -4.20829,3.10308 -5.73857,5.52603 -1.31775,2.1254 -2.38045,4.54836 -2.38045,6.9288 z m 2.97556,-0.25505 c 0,-0.76514 0.085,-1.53028 0.21254,-2.29543 0.38257,-2.21041 1.40276,-4.12327 2.63549,-6.16365 1.27524,-2.16791 3.52816,-3.44315 5.27099,-3.44315 0.89267,0 2.80552,0.29756 2.80552,1.48778 0,0.12753 -1.14771,7.94899 -2.1679,9.98937 -0.38257,0.76515 -2.38045,3.82572 -5.44102,3.82572 -1.78534,0 -3.31562,-1.27524 -3.31562,-3.40064 z"/>
		<path d="m 719.67954,587.77896 c 0,0.38257 0.42508,0.5526 0.72263,0.5526 h 0.38257 c 0.5101,0 1.36026,-0.0425 2.29543,-0.0425 1.19023,0 2.80553,0.0425 4.2508,0.0425 0.34006,0 0.59511,-0.17003 0.59511,-0.5526 0,-0.97768 -3.52816,-0.17003 -3.52816,-2.29543 0,-0.42508 0.25505,-1.82784 0.42508,-3.10308 0.34006,-2.50797 0.21254,-2.55048 0.85016,-2.55048 0.59511,0 1.65781,0.17003 2.29543,0.17003 2.08289,0 3.82572,-0.5101 5.61105,-1.78533 2.29543,-1.65782 2.76302,-2.76302 3.69819,-4.37833 1.27524,-2.1679 1.65782,-3.69819 1.65782,-6.33368 0,-4.50585 -3.61318,-5.69607 -7.52391,-5.69607 -2.29544,0 -3.23061,0.21254 -3.61318,0.21254 -0.17003,0 -0.21254,-0.085 -0.21254,-0.21254 v -0.17003 c 0,-1.19023 1.14771,-3.78321 1.14771,-5.05845 0,-0.42508 -0.17003,-0.72264 -0.59511,-0.72264 -0.46759,0 -0.89267,0.12753 -1.23273,0.29756 -1.31775,0.68013 -1.10521,1.53029 -1.70032,4.71838 -0.38257,2.16791 0.12753,1.23274 -3.27311,2.6355 -0.25505,0.12752 -0.29756,0.34006 -0.29756,0.5526 v 0.17003 c 0,0.25505 0.12753,0.5101 0.55261,0.5101 0.51009,0 1.70031,-0.76514 2.1679,-0.76514 0.17003,0 0.21254,0.085 0.21254,0.21254 0,0.12752 -0.17003,0 -2.76302,20.19128 -0.12752,1.02019 -0.17003,1.40276 -0.25504,1.65781 -0.29756,0.89267 -1.87035,0.63762 -1.87035,1.74283 z m 5.8661,-9.94687 c 0,-1.23273 0.59511,-4.93092 0.85015,-6.84378 l 0.55261,-4.71838 c 0.25505,-2.21042 0.42508,-3.27312 0.72263,-3.27312 0.25505,0 0.34007,-0.12752 1.0202,-0.12752 1.53028,0 7.14133,0.38257 7.14133,6.20616 0,3.82572 -3.61317,9.77683 -7.86397,9.77683 -1.95537,0 -2.42295,-0.76514 -2.42295,-1.02019 z"/>
		<path d="m 740.87639,579.02232 c 0,0.85016 0.93517,1.02019 1.40276,1.02019 0.89267,0 1.40276,-0.17003 1.57279,-1.27524 0.59512,-4.33581 0.85016,-8.75664 1.70032,-10.88204 1.14772,-2.93305 3.52817,-3.69819 5.05845,-3.69819 1.27524,0 2.42296,0.63762 2.42296,3.31562 0,2.55048 -0.76515,6.03613 -0.76515,8.67162 0,1.82785 0.34007,3.95324 2.08289,3.95324 1.87035,0 5.52604,-3.06057 5.52604,-5.01594 0,-0.21254 -0.17003,-0.34006 -0.42508,-0.34006 -0.34006,0 -0.85016,1.19022 -1.74283,1.74283 -0.5526,0.34006 -1.1052,0.76514 -1.78533,0.76514 -0.63762,0 -1.02019,-0.80765 -1.02019,-1.95537 0,-1.95536 1.02019,-6.16365 1.02019,-8.58661 0,-2.63549 -0.85016,-4.8034 -3.78321,-4.8034 -3.44315,0 -5.73858,3.61318 -6.16366,3.61318 -0.12752,0 -0.17003,-0.21254 -0.17003,-0.46759 0,-3.86822 2.55048,-15.34537 2.55048,-16.28055 0,-0.29755 -0.21254,-0.5526 -0.5101,-0.5526 -0.93517,0 -1.1052,0.42508 -4.59086,0.72263 -1.44527,0.12753 -1.6153,0.38257 -1.6153,0.59511 0,0.42508 0.29756,0.5101 0.5526,0.5101 0.34007,0 0.85016,-0.0425 1.74283,-0.0425 0.76514,0 1.19022,0.25505 1.19022,0.97769 0,0.29755 -2.55047,17.0882 -3.01806,20.23379 -0.34007,2.33794 -1.23273,6.63124 -1.23273,7.77896 z"/>
		<path d="m 760.53101,585.3135 c 0,1.95536 1.70032,2.50797 3.52816,2.50797 3.99575,0 6.71626,-4.84591 8.71413,-9.90436 2.50797,-6.33369 3.52817,-12.19979 3.52817,-14.11265 0,-1.31774 -0.72264,-2.25292 -1.65781,-2.25292 -1.0202,0 -1.44528,0.80765 -1.44528,1.5728 0,1.14771 1.0627,1.99787 1.0627,3.2306 0,2.84804 -0.93517,7.39639 -1.53028,7.39639 -0.46759,0 -4.50585,-12.07226 -8.62912,-12.07226 -2.59299,0 -3.44315,3.69819 -3.44315,5.48352 0,0.72264 0.17004,0.93518 0.42508,0.93518 1.27524,0 0.38258,-3.1881 2.84804,-3.1881 2.25292,0 6.9288,10.96706 6.9288,13.3475 0,1.61531 -2.80553,7.05633 -5.27099,7.05633 -1.95537,0 -1.99788,-1.40277 -3.6982,-1.40277 -0.72263,0 -1.36025,0.68013 -1.36025,1.40277 z"/>
		<path d="m 788.42223,576.98193 c 0,2.46547 2.678,3.57067 5.18597,3.57067 6.58873,0 11.60467,-7.60892 11.60467,-13.39001 0,-2.76301 -1.48778,-5.39851 -4.67587,-5.39851 -4.88842,0 -6.88629,3.95324 -7.48141,3.95324 -0.085,0 -0.21254,-0.34006 -0.21254,-0.63762 0,-3.06057 2.72051,-15.72795 2.72051,-16.49309 0,-0.46759 -0.34006,-0.76514 -0.80765,-0.76514 -0.25505,0 -1.02019,0.25505 -2.678,0.46759 -1.95537,0.25504 -3.14559,0.21254 -3.14559,1.06269 0,0.59512 0.34006,0.59512 0.80765,0.59512 0.63762,0 1.10521,-0.085 1.74283,-0.085 0.85016,0 1.0627,0.29756 1.0627,0.5101 0,1.02019 -0.25505,2.50797 -0.63762,4.33581 -0.63762,3.14559 -1.14772,7.26886 -1.91286,11.68969 -0.59511,3.44315 -1.57279,7.86397 -1.57279,10.58448 z m 2.80552,-0.51009 c 0,-0.42508 0.46759,-4.97343 1.70032,-8.33156 1.36025,-3.6982 4.12327,-4.12328 5.14346,-4.12328 2.33794,0 4.16578,1.95537 4.16578,4.33582 0,4.88841 -3.91073,11.00956 -7.73645,11.00956 -2.63549,0 -3.27311,-1.44527 -3.27311,-2.89054 z"/>
		<path d="m 806.85807,585.3135 c 0,1.95536 1.70032,2.50797 3.52816,2.50797 3.99575,0 6.71626,-4.84591 8.71413,-9.90436 2.50797,-6.33369 3.52816,-12.19979 3.52816,-14.11265 0,-1.31774 -0.72263,-2.25292 -1.65781,-2.25292 -1.02019,0 -1.44527,0.80765 -1.44527,1.5728 0,1.14771 1.0627,1.99787 1.0627,3.2306 0,2.84804 -0.93517,7.39639 -1.53029,7.39639 -0.46758,0 -4.50584,-12.07226 -8.62911,-12.07226 -2.59299,0 -3.44315,3.69819 -3.44315,5.48352 0,0.72264 0.17003,0.93518 0.42508,0.93518 1.27524,0 0.38257,-3.1881 2.84803,-3.1881 2.25293,0 6.9288,10.96706 6.9288,13.3475 0,1.61531 -2.80552,7.05633 -5.27099,7.05633 -1.95536,0 -1.99787,-1.40277 -3.69819,-1.40277 -0.72263,0 -1.36025,0.68013 -1.36025,1.40277 z"/>
	</g>
	<g aria-label="JOHN LANE">
		<path d="m 559.79971,601.40351 h -8.79533 v 25.45029 c 0,3.88304 -1.91812,5.4269 -4.44444,5.4269 -2.24561,0 -5.00585,-2.61988 -5.00585,-2.61988 l -2.80702,7.34503 c 0,0 3.50878,3.6959 9.02924,3.6959 7.7193,0 12.0234,-4.02339 12.0234,-11.60233 z"/>
		<path d="m 568.20321,620.67836 c 0,11.27486 8.04679,20.02339 19.46199,20.02339 11.08772,0 19.41521,-8.74853 19.41521,-20.02339 0,-11.27485 -8.70176,-19.97661 -19.41521,-19.97661 -10.61988,0 -19.46199,8.70176 -19.46199,19.97661 z m 9.49708,0 c 0,-5.75438 3.18129,-11.50877 9.96491,-11.50877 6.83041,0 9.91813,5.75439 9.91813,11.50877 0,5.75439 -2.90058,11.50877 -9.91813,11.50877 -7.20468,0 -9.96491,-5.75438 -9.96491,-11.50877 z"/>
		<path d="m 624.75658,624.51462 h 12.44444 V 640 h 8.79532 v -38.59649 h -8.79532 v 15.39181 h -12.44444 v -15.39181 h -8.79533 V 640 h 8.79533 z"/>
		<path d="m 665.39254,616.04678 h 0.0936 L 680.83114,640 h 8.79532 v -38.59649 h -8.79532 v 23.95321 h -0.0936 l -15.34503,-23.95321 h -8.79532 V 640 h 8.79532 z"/>
		<path d="m 726.83627,601.40351 h -8.79533 V 640 h 22.08188 v -7.7193 h -13.28655 z"/>
		<path d="m 769.78144,601.40351 h -8.14035 L 746.06214,640 h 9.45029 l 2.8538,-7.7193 h 14.69006 l 2.8538,7.7193 h 9.45029 z m 0.2807,23.15789 h -8.70176 l 4.3041,-11.22807 h 0.0936 z"/>
		<path d="m 800.6155,616.04678 h 0.0936 L 816.0541,640 h 8.79532 v -38.59649 h -8.79532 v 23.95321 h -0.0936 L 800.6155,601.40351 h -8.79532 V 640 h 8.79532 z"/>
		<path d="M 857.55336,601.40351 H 835.47149 V 640 h 22.08187 v -7.7193 h -13.28655 v -7.76608 h 12.72514 v -7.7193 h -12.72514 v -7.67251 h 13.28655 z"/>
	</g>
</svg>
